<svg id="eW3bPauf7lz1" xmlns="http://www.w3.org/2000/svg" xmlns:xlink="http://www.w3.org/1999/xlink" viewBox="0 0 300 500" shape-rendering="geometricPrecision" text-rendering="geometricPrecision" width="300" height="500"><path d="M196.123166,203.205963v-79.102979l-46.21352-.000002L150,45v-45h72h78-78v-66.846756" transform="matrix(.922295 0 0 1-60.34425 107)" fill="none" stroke="#3f5787" stroke-width="3"/><path d="" transform="translate(0 152)" fill="none" stroke="#3f5787"/><path d="M150,0v-45v45Z" transform="matrix(-1 0 0 1 366.344281 152)" fill="none" stroke="#3f5787" stroke-width="3"/><path d="" fill="none" stroke="#3f5787"/><path d="M44.583333,231.102986L78,231.102982l-33.416667.000004Z" fill="none" stroke="#3f5787" stroke-width="3"/><path d="M228,152v79.102982h-34.054349v79.102981" transform="matrix(1.050064 0 0 1-23.070311 0)" fill="none" stroke="#3f5787" stroke-width="3"/><path d="M227.999969,231.102982l37.416698.000001v79.102981" transform="translate(-11.655719 0)" fill="none" stroke="#3f5787" stroke-width="3"/><path d="" fill="none" stroke="#3f5787"/><path d="M44.583333,231.102986v79.102977-79.102977Z" transform="translate(0 0.000002)" fill="none" stroke="#3f5787" stroke-width="3"/></svg>
