<svg id="eZrF4XG0fPq1" xmlns="http://www.w3.org/2000/svg" xmlns:xlink="http://www.w3.org/1999/xlink" viewBox="0 0 30.8 42.8" shape-rendering="geometricPrecision" text-rendering="geometricPrecision"><g transform="matrix(.55806 0 0-.864646-27.793273 82.485511)"><path d="M50.398,50.398v40.5c0,2.485,12.102,4.5,27,4.5c14.899,0,27.002-2.015,27.002-4.5v-40.5c0-2.48-12.103-4.5-27.002-4.5-14.898,0-27,2.02-27,4.5Z" fill="none" stroke="#000" stroke-miterlimit="10.433"/><path d="M50.398,90.898l.036-.231.104-.228.172-.225.237-.221.302-.218.364-.213.425-.209.484-.204.541-.199.597-.194.65-.189.703-.182.753-.177.802-.17.849-.163.894-.157.938-.149.98-.141l1.021-.134l1.058-.126l1.096-.117l1.13-.108l1.165-.1l1.195-.09l1.226-.081l1.254-.071l1.281-.061l1.306-.05l1.329-.04l1.35-.028l1.37-.018l1.388-.006c14.899,0,27.002,2.02,27.002,4.5" fill="none" stroke="#000" stroke-miterlimit="10.433"/><path d="M50.398,90.898l.036-.231.104-.228.172-.225.237-.221.302-.218.364-.213.425-.209.484-.204.541-.199.597-.194.65-.189.703-.182.753-.177.802-.17.849-.163.894-.157.938-.149.98-.141l1.021-.134l1.058-.126l1.096-.117l1.13-.108l1.165-.1l1.195-.09l1.226-.081l1.254-.071l1.281-.061l1.306-.05l1.329-.04l1.35-.028l1.37-.018l1.388-.006c14.899,0,27.002,2.02,27.002,4.5" transform="translate(0-16.257333)" fill="none" stroke="#000" stroke-miterlimit="10.433"/><path d="M50.398,90.898l.036-.231.104-.228.172-.225.237-.221.302-.218.364-.213.425-.209.484-.204.541-.199.597-.194.65-.189.703-.182.753-.177.802-.17.849-.163.894-.157.938-.149.98-.141l1.021-.134l1.058-.126l1.096-.117l1.13-.108l1.165-.1l1.195-.09l1.226-.081l1.254-.071l1.281-.061l1.306-.05l1.329-.04l1.35-.028l1.37-.018l1.388-.006c14.899,0,27.002,2.02,27.002,4.5" transform="translate(0-24.306195)" fill="none" stroke="#000" stroke-miterlimit="10.433"/><path d="M50.398,90.898l.036-.231.104-.228.172-.225.237-.221.302-.218.364-.213.425-.209.484-.204.541-.199.597-.194.65-.189.703-.182.753-.177.802-.17.849-.163.894-.157.938-.149.98-.141l1.021-.134l1.058-.126l1.096-.117l1.13-.108l1.165-.1l1.195-.09l1.226-.081l1.254-.071l1.281-.061l1.306-.05l1.329-.04l1.35-.028l1.37-.018l1.388-.006c14.899,0,27.002,2.02,27.002,4.5" transform="translate(-.000056-32.399603)" fill="none" stroke="#000" stroke-miterlimit="10.433"/><path d="M50.398,90.898l.036-.231.104-.228.172-.225.237-.221.302-.218.364-.213.425-.209.484-.204.541-.199.597-.194.65-.189.703-.182.753-.177.802-.17.849-.163.894-.157.938-.149.98-.141l1.021-.134l1.058-.126l1.096-.117l1.13-.108l1.165-.1l1.195-.09l1.226-.081l1.254-.071l1.281-.061l1.306-.05l1.329-.04l1.35-.028l1.37-.018l1.388-.006c14.899,0,27.002,2.02,27.002,4.5" transform="translate(-.000055-8.109897)" fill="none" stroke="#000" stroke-miterlimit="10.433"/></g><path d="M0.409932,32.687611c8.91048,4.305489,24.390143,4.21194,30.058259,0v6.221471c-8.497326,5.520732-23.367435,4.741599-30.136387,0l.078128-6.221471Z" transform="matrix(.972771 0 0 0.944398 0.420421 2.419363)" fill="#d8d511" stroke-width="0.5"/><ellipse rx="13.401249" ry="2.418673" transform="matrix(1.093771 0 0 1.232936 15.401096 32.404439)" fill="#d8d511" stroke="#000" stroke-width="0.1"/></svg>
