<svg id="eGgtN7h0wJW1" xmlns="http://www.w3.org/2000/svg" xmlns:xlink="http://www.w3.org/1999/xlink" viewBox="0 0 30.8 42.8" shape-rendering="geometricPrecision" text-rendering="geometricPrecision"><ellipse rx="14.66" ry="0.48" transform="matrix(1.027841 0 0 6.102904 15.731851 15.018363)" fill="#ffd700" stroke="#000" stroke-width="0.01"/><g transform="matrix(.55806 0 0-.864646-27.793273 82.485511)"><path d="M50.398,50.398v40.5c0,2.485,12.102,4.5,27,4.5c14.899,0,27.002-2.015,27.002-4.5v-40.5c0-2.48-12.103-4.5-27.002-4.5-14.898,0-27,2.02-27,4.5Z" fill="none" stroke="#000" stroke-miterlimit="10.433"/><path d="M50.398,90.898l.036-.231.104-.228.172-.225.237-.221.302-.218.364-.213.425-.209.484-.204.541-.199.597-.194.65-.189.703-.182.753-.177.802-.17.849-.163.894-.157.938-.149.98-.141l1.021-.134l1.058-.126l1.096-.117l1.13-.108l1.165-.1l1.195-.09l1.226-.081l1.254-.071l1.281-.061l1.306-.05l1.329-.04l1.35-.028l1.37-.018l1.388-.006c14.899,0,27.002,2.02,27.002,4.5" fill="none" stroke="#000" stroke-miterlimit="10.433"/><path d="M50.398,90.898l.036-.231.104-.228.172-.225.237-.221.302-.218.364-.213.425-.209.484-.204.541-.199.597-.194.65-.189.703-.182.753-.177.802-.17.849-.163.894-.157.938-.149.98-.141l1.021-.134l1.058-.126l1.096-.117l1.13-.108l1.165-.1l1.195-.09l1.226-.081l1.254-.071l1.281-.061l1.306-.05l1.329-.04l1.35-.028l1.37-.018l1.388-.006c14.899,0,27.002,2.02,27.002,4.5" transform="translate(-.000056-4.058402)" fill="none" stroke="#000" stroke-miterlimit="10.433"/><path d="M50.398,90.898l.036-.231.104-.228.172-.225.237-.221.302-.218.364-.213.425-.209.484-.204.541-.199.597-.194.65-.189.703-.182.753-.177.802-.17.849-.163.894-.157.938-.149.98-.141l1.021-.134l1.058-.126l1.096-.117l1.13-.108l1.165-.1l1.195-.09l1.226-.081l1.254-.071l1.281-.061l1.306-.05l1.329-.04l1.35-.028l1.37-.018l1.388-.006c14.899,0,27.002,2.02,27.002,4.5" transform="translate(0-16.257333)" fill="none" stroke="#000" stroke-miterlimit="10.433"/><path d="M50.398,90.898l.036-.231.104-.228.172-.225.237-.221.302-.218.364-.213.425-.209.484-.204.541-.199.597-.194.65-.189.703-.182.753-.177.802-.17.849-.163.894-.157.938-.149.98-.141l1.021-.134l1.058-.126l1.096-.117l1.13-.108l1.165-.1l1.195-.09l1.226-.081l1.254-.071l1.281-.061l1.306-.05l1.329-.04l1.35-.028l1.37-.018l1.388-.006c14.899,0,27.002,2.02,27.002,4.5" transform="translate(0-20.307827)" fill="none" stroke="#000" stroke-miterlimit="10.433"/><path d="M50.398,90.898l.036-.231.104-.228.172-.225.237-.221.302-.218.364-.213.425-.209.484-.204.541-.199.597-.194.65-.189.703-.182.753-.177.802-.17.849-.163.894-.157.938-.149.98-.141l1.021-.134l1.058-.126l1.096-.117l1.13-.108l1.165-.1l1.195-.09l1.226-.081l1.254-.071l1.281-.061l1.306-.05l1.329-.04l1.35-.028l1.37-.018l1.388-.006c14.899,0,27.002,2.02,27.002,4.5" transform="translate(0-24.306195)" fill="none" stroke="#000" stroke-miterlimit="10.433"/><path d="M50.398,90.898l.036-.231.104-.228.172-.225.237-.221.302-.218.364-.213.425-.209.484-.204.541-.199.597-.194.65-.189.703-.182.753-.177.802-.17.849-.163.894-.157.938-.149.98-.141l1.021-.134l1.058-.126l1.096-.117l1.13-.108l1.165-.1l1.195-.09l1.226-.081l1.254-.071l1.281-.061l1.306-.05l1.329-.04l1.35-.028l1.37-.018l1.388-.006c14.899,0,27.002,2.02,27.002,4.5" transform="translate(-.000056-28.357364)" fill="none" stroke="#000" stroke-miterlimit="10.433"/><path d="M50.398,90.898l.036-.231.104-.228.172-.225.237-.221.302-.218.364-.213.425-.209.484-.204.541-.199.597-.194.65-.189.703-.182.753-.177.802-.17.849-.163.894-.157.938-.149.98-.141l1.021-.134l1.058-.126l1.096-.117l1.13-.108l1.165-.1l1.195-.09l1.226-.081l1.254-.071l1.281-.061l1.306-.05l1.329-.04l1.35-.028l1.37-.018l1.388-.006c14.899,0,27.002,2.02,27.002,4.5" transform="translate(-.000056-32.399603)" fill="none" stroke="#000" stroke-miterlimit="10.433"/><path d="M50.398,90.898l.036-.231.104-.228.172-.225.237-.221.302-.218.364-.213.425-.209.484-.204.541-.199.597-.194.65-.189.703-.182.753-.177.802-.17.849-.163.894-.157.938-.149.98-.141l1.021-.134l1.058-.126l1.096-.117l1.13-.108l1.165-.1l1.195-.09l1.226-.081l1.254-.071l1.281-.061l1.306-.05l1.329-.04l1.35-.028l1.37-.018l1.388-.006c14.899,0,27.002,2.02,27.002,4.5" transform="translate(0-36.453163)" fill="none" stroke="#000" stroke-miterlimit="10.433"/><path d="M50.398,90.898l.036-.231.104-.228.172-.225.237-.221.302-.218.364-.213.425-.209.484-.204.541-.199.597-.194.65-.189.703-.182.753-.177.802-.17.849-.163.894-.157.938-.149.98-.141l1.021-.134l1.058-.126l1.096-.117l1.13-.108l1.165-.1l1.195-.09l1.226-.081l1.254-.071l1.281-.061l1.306-.05l1.329-.04l1.35-.028l1.37-.018l1.388-.006c14.899,0,27.002,2.02,27.002,4.5" transform="translate(-.000055-8.109897)" fill="none" stroke="#000" stroke-miterlimit="10.433"/><path d="M50.398,90.898l.036-.231.104-.228.172-.225.237-.221.302-.218.364-.213.425-.209.484-.204.541-.199.597-.194.65-.189.703-.182.753-.177.802-.17.849-.163.894-.157.938-.149.98-.141l1.021-.134l1.058-.126l1.096-.117l1.13-.108l1.165-.1l1.195-.09l1.226-.081l1.254-.071l1.281-.061l1.306-.05l1.329-.04l1.35-.028l1.37-.018l1.388-.006c14.899,0,27.002,2.02,27.002,4.5" transform="translate(-.000055-12.154201)" fill="none" stroke="#000" stroke-miterlimit="10.433"/></g><path d="M0.410689,36.001418c7.49367,4.607251,22.669212,4.534793,30.349591,0v3.299489c-7.108799,3.952614-22.217776,4.446434-30.428477,0l.078885-3.299489Z" transform="matrix(.972773 0 0 1 0.277211 0.348294)" fill="#ffd700" stroke-width="0.5"/><path d="M0.410689,36.001418c7.493671,4.607251,22.669212,4.534793,30.349592,0v3.299489c-7.108799,3.952614-22.217777,4.446434-30.428477,0l.078885-3.299489Z" transform="matrix(.972773 0 0 1 0.277243-3.150801)" fill="#ffd700" stroke-width="0.5"/><path d="M0.410689,36.001418c7.493671,4.607251,22.669212,4.534793,30.349592,0v3.299489c-7.108799,3.952614-22.217777,4.446434-30.428477,0l.078885-3.299489Z" transform="matrix(.972773 0 0 1 0.277211-6.655693)" fill="#ffd700" stroke-width="0.5"/><path d="M0.410689,36.001418c7.493671,4.607251,22.669212,4.534793,30.349592,0v3.299489c-7.108799,3.952614-22.217777,4.446434-30.428477,0l.078885-3.299489Z" transform="matrix(.972773 0 0 1 0.340932-10.150799)" fill="#ffd700" stroke-width="0.5"/><path d="M0.410689,36.001418c7.493671,4.607251,22.669212,4.534793,30.349592,0v3.299489c-7.108799,3.952614-22.217777,4.446434-30.428477,0l.078885-3.299489Z" transform="matrix(.972773 0 0 1 0.277211-13.653626)" fill="#ffd700" stroke-width="0.5"/><path d="M0.410689,36.001418c7.493671,4.607251,22.669212,4.534793,30.349592,0v3.299489c-7.108799,3.952614-22.217777,4.446434-30.428477,0l.078885-3.299489Z" transform="matrix(.972773 0 0 1 0.340932-17.110799)" fill="#ffd700" stroke-width="0.5"/><path d="M0.410689,36.001418c7.493671,4.607251,22.669212,4.534793,30.349591,0v3.299489c-7.108799,3.952614-22.217777,4.446434-30.428476,0l.078885-3.299489Z" transform="matrix(.972773 0 0 1 0.277211-20.701418)" fill="#ffd700" stroke-width="0.5"/><path d="" fill="none" stroke="#3f5787" stroke-width="0.5"/></svg>
