<svg id="edl07jBCWVI1" xmlns="http://www.w3.org/2000/svg" xmlns:xlink="http://www.w3.org/1999/xlink" viewBox="0 0 100 200" shape-rendering="geometricPrecision" text-rendering="geometricPrecision" width="100" height="200"><defs><linearGradient id="edl07jBCWVI7-fill" x1="264.36541" y1="550.91775" x2="279.94336" y2="552.303439" spreadMethod="pad" gradientUnits="userSpaceOnUse" gradientTransform="translate(0 0)"><stop id="edl07jBCWVI7-fill-0" offset="0%" stop-color="#a9c0da"/><stop id="edl07jBCWVI7-fill-1" offset="100%" stop-color="rgba(169,192,218,0)"/></linearGradient></defs><g transform="matrix(.529039 0 0 0.266742-142.522989 185.025816)"><g transform="matrix(1.88756 0 0 1.88756-303.292-739.557)"><g><g transform="translate(44.227672-335.789978)"><path d="M349.01,738.9v-270c0,0,.20852-62.53,0-77.325.29656-9.7443,10.228-13.316,10.228-13.316l-88.628.36755-.10212,360.04" fill="none" stroke="#000" stroke-linecap="round" stroke-linejoin="round"/><path d="M271.5,379.83l-.6392,360.4c8.1098,1.7907.61992.82613,9.1222,1.6733l-1.4517-360.64c-7.1948-2.2209.0308.16326-7.0313-1.4292Z" opacity="0.5" fill="url(#edl07jBCWVI7-fill)" fill-rule="evenodd"/><g transform="translate(-1.384498-42.351398)"><path d="M313.72,649.09h21.213" fill="none" stroke="#000"/><path d="M309.41,642.8h29.363" fill="none" stroke="#000"/><path d="M313.72,636.49h21.213" fill="none" stroke="#000"/><path d="M313.69,630.28h21.213" fill="none" stroke="#000"/><path d="M313.69,624.07h21.213" fill="none" stroke="#000"/><path d="M309.39,617.78h29.363" fill="none" stroke="#000"/><path d="M313.79,611.58h21.213" fill="none" stroke="#000"/><path d="M313.79,605.37h21.213" fill="none" stroke="#000"/><path d="M313.76,599.16h21.213" fill="none" stroke="#000"/><path d="M313.76,592.96h21.213" fill="none" stroke="#000"/><path d="M309.45,586.67h29.363" fill="none" stroke="#000"/><path d="M313.84,580.59h21.213" fill="none" stroke="#000"/><path d="M313.84,574.25h21.213" fill="none" stroke="#000"/><path d="M313.81,568.04h21.213" fill="none" stroke="#000"/><path d="M313.81,561.84h21.213" fill="none" stroke="#000"/><path d="M309.51,555.55h29.363" fill="none" stroke="#000"/><path d="M316.55,549.29h16.033" fill="none" stroke="#000"/><path d="M316.39,549.31h16.033" fill="none" stroke="#000"/><path d="M313.78,549.23h21.213" fill="none" stroke="#000"/><path d="M313.78,543.02h21.213" fill="none" stroke="#000"/><path d="M313.75,536.81h21.213" fill="none" stroke="#000"/><path d="M313.75,530.61h21.213" fill="none" stroke="#000"/><path d="M309.44,524.32h29.363" fill="none" stroke="#000"/><path d="M313.8,518.2h21.213" fill="none" stroke="#000"/><path d="M313.8,511.99h21.213" fill="none" stroke="#000"/><path d="M313.77,505.78h21.213" fill="none" stroke="#000"/><path d="M313.77,499.57h21.213" fill="none" stroke="#000"/><path d="M309.46,493.28h29.363" fill="none" stroke="#000"/><path d="M316.51,487.22h16.033" fill="none" stroke="#000"/><path d="M313.9,487.18h21.213" fill="none" stroke="#000"/><path d="M313.9,480.97h21.213" fill="none" stroke="#000"/><path d="M313.87,474.76h21.213" fill="none" stroke="#000"/><path d="M313.87,468.56h21.213" fill="none" stroke="#000"/><path d="M309.56,462.27h29.363" fill="none" stroke="#000"/><path d="M313.76,456.18h21.213" fill="none" stroke="#000"/><path d="M313.76,449.98h21.213" fill="none" stroke="#000"/><path d="M313.73,443.77h21.213" fill="none" stroke="#000"/><path d="M313.73,437.56h21.213" fill="none" stroke="#000"/><path d="M302.79,431.27h45.902" fill="none" stroke="#000" stroke-width="2"/></g><g transform="translate(-1.35449 0.503157)"><path d="M313.65,698.96h21.213" fill="none" stroke="#000"/><path d="M313.65,692.75h21.213" fill="none" stroke="#000"/><path d="M313.62,686.55h21.213" fill="none" stroke="#000"/><path d="M313.62,680.34h21.213" fill="none" stroke="#000"/><path d="M309.32,674.05h29.363" fill="none" stroke="#000"/><path d="M313.75,667.72h21.213" fill="none" stroke="#000"/><path d="M313.75,661.51h21.213" fill="none" stroke="#000"/><path d="M313.72,655.3h21.213" fill="none" stroke="#000"/><path d="M313.69,729.92h21.213" fill="none" stroke="#000"/><path d="M313.69,723.71h21.213" fill="none" stroke="#000"/><path d="M313.66,717.51h21.213" fill="none" stroke="#000"/><path d="M313.66,711.3h21.213" fill="none" stroke="#000"/><path d="M309.36,705.01h29.363" fill="none" stroke="#000"/></g><g transform="translate(-.839497-54.851385)"><path d="M313.65,698.96h21.213" fill="none" stroke="#000"/><path d="M313.65,692.75h21.213" fill="none" stroke="#000"/><path d="M313.62,686.55h21.213" fill="none" stroke="#000"/><path d="M313.62,680.34h21.213" fill="none" stroke="#000"/><path d="M309.32,674.05h29.363" fill="none" stroke="#000"/><path d="M313.75,667.72h21.213" fill="none" stroke="#000"/><path d="M313.75,661.51h21.213" fill="none" stroke="#000"/><path d="M313.72,655.3h21.213" fill="none" stroke="#000"/><path d="M309.36,705.01h29.363" fill="none" stroke="#000"/></g><path d="M270.86,739.28h78.187l28.889,8.3017v9.7548h-137.38l.0657-9.5964Z" fill="none" stroke="#000" stroke-width="5" stroke-linejoin="round"/></g></g></g></g><path d="M0.657072,192.641118l-.083518,6.597965.083518-6.597965Z" transform="translate(0 0.000002)" fill="none" stroke="#000" stroke-width="5"/><path d="M0.657072,192.641118l-.083518,6.597965.083518-6.597965Z" transform="translate(98.718919 0.000002)" fill="none" stroke="#000" stroke-width="5"/><path d="M2.49448,197.735749l95.127622.250556-95.127622-.250556Z" fill="none" stroke="#000" stroke-width="5"/></svg>
